<svg width="512" height="512" viewBox="0 0 512 512" xmlns="http://www.w3.org/2000/svg">
  <defs>
    <linearGradient id="bg" x1="0" y1="0" x2="0" y2="1">
      <stop offset="0" stop-color="#1c2f40"/>
      <stop offset="1" stop-color="#0b131c"/>
    </linearGradient>
    <clipPath id="clip"><rect width="512" height="512" rx="112"/></clipPath>
  </defs>

  <g clip-path="url(#clip)">
    <rect width="512" height="512" fill="url(#bg)"/>

    <!-- kraken -->
    <g transform="translate(76,34) scale(1.8)" stroke-linecap="round" stroke-linejoin="round">
      <g fill="none">
        <path d="M62,108 C38,114 16,104 15,80 C14,62 30,49 47,52 C55,53 59,60 53,66" stroke="#08111a" stroke-width="15"/>
        <path d="M62,108 C38,114 16,104 15,80 C14,62 30,49 47,52 C55,53 59,60 53,66" stroke="#3fb6a5" stroke-width="8"/>
        <path d="M76,120 C56,130 48,152 60,170 C68,182 82,184 87,172" stroke="#08111a" stroke-width="15"/>
        <path d="M76,120 C56,130 48,152 60,170 C68,182 82,184 87,172" stroke="#4fd8c4" stroke-width="8"/>
        <path d="M98,126 C96,152 102,176 94,194 C90,202 80,202 78,192" stroke="#08111a" stroke-width="15"/>
        <path d="M98,126 C96,152 102,176 94,194 C90,202 80,202 78,192" stroke="#3fb6a5" stroke-width="8"/>
        <path d="M116,118 C134,122 146,138 140,158 C136,172 120,178 112,168" stroke="#08111a" stroke-width="15"/>
        <path d="M116,118 C134,122 146,138 140,158 C136,172 120,178 112,168" stroke="#4fd8c4" stroke-width="8"/>
        <path d="M128,102 C152,106 172,94 168,70 C165,53 146,45 133,53 C126,57 127,66 136,70" stroke="#08111a" stroke-width="15"/>
        <path d="M128,102 C152,106 172,94 168,70 C165,53 146,45 133,53 C126,57 127,66 136,70" stroke="#3fb6a5" stroke-width="8"/>
      </g>

      <g fill="#1c4d47">
        <circle cx="30" cy="88" r="3.6"/>
        <circle cx="46" cy="66" r="3.2"/>
        <circle cx="57" cy="145" r="3.6"/>
        <circle cx="70" cy="168" r="3"/>
        <circle cx="98" cy="160" r="3.4"/>
        <circle cx="90" cy="188" r="3"/>
        <circle cx="130" cy="140" r="3.4"/>
        <circle cx="122" cy="166" r="3"/>
        <circle cx="156" cy="80" r="3.6"/>
        <circle cx="140" cy="58" r="3"/>
      </g>

      <path d="M100,8 C112,8 121,22 124,42 L129,78 C131,100 118,114 100,118 C82,114 69,100 71,78 L76,42 C79,22 88,8 100,8 Z" fill="#5fe0cd" stroke="#08111a" stroke-width="8"/>

      <g fill="#39a596" opacity="0.85">
        <circle cx="100" cy="26" r="4.2"/>
        <circle cx="88" cy="40" r="3.4"/>
        <circle cx="113" cy="44" r="3.6"/>
        <circle cx="80" cy="60" r="3"/>
        <circle cx="121" cy="62" r="3.2"/>
        <circle cx="100" cy="100" r="3.6"/>
        <circle cx="86" cy="94" r="2.8"/>
        <circle cx="115" cy="92" r="3"/>
      </g>

      <path d="M64,64 C74,56 87,56 95,63" fill="none" stroke="#08111a" stroke-width="6"/>
      <path d="M136,64 C126,56 113,56 105,63" fill="none" stroke="#08111a" stroke-width="6"/>
      <ellipse cx="79" cy="76" rx="12" ry="16" transform="rotate(-18 79 76)" fill="#ff7a2e" stroke="#08111a" stroke-width="5"/>
      <ellipse cx="121" cy="76" rx="12" ry="16" transform="rotate(18 121 76)" fill="#ff7a2e" stroke="#08111a" stroke-width="5"/>
      <circle cx="79" cy="78" r="3.5" fill="#08111a"/>
      <circle cx="121" cy="78" r="3.5" fill="#08111a"/>
      <path d="M92,95 L108,95 L100,106 Z" fill="#08111a"/>
    </g>

    <!-- wave footer -->
    <g transform="translate(0,404)">
      <path d="M0,44 C40,10 80,10 120,44 C160,78 200,78 240,44 C280,10 320,10 360,44 C400,78 440,78 480,44 L512,44 L512,108 L0,108 Z" fill="#1c4d47"/>
      <path d="M0,34 C40,0 80,0 120,34 C160,68 200,68 240,34 C280,0 320,0 360,34 C400,68 440,68 480,34 L512,34 L512,108 L0,108 Z" fill="#4fd8c4"/>
      <path d="M0,34 C40,0 80,0 120,34 C160,68 200,68 240,34 C280,0 320,0 360,34 C400,68 440,68 480,34" fill="none" stroke="#dff4f0" stroke-width="5" stroke-linecap="round"/>
    </g>
  </g>
</svg>
